{"asset":{"generator":"FBX2glTF v0.9.7","version":"2.0"},"scene":0,"buffers":[{"byteLength":301420,"uri":"data:application/octet-stream;base64,"}],"bufferViews":[{"buffer":0,"byteLength":300,"byteOffset":0,"target":34963},{"buffer":0,"byteLength":432,"byteOffset":300,"target":34962},{"buffer":0,"byteLength":432,"byteOffset":732,"target":34962},{"buffer":0,"byteLength":288,"byteOffset":1164,"target":34962},{"buffer":0,"byteLength":2838,"byteOffset":1452,"target":34963},{"buffer":0,"byteLength":11760,"byteOffset":4292,"target":34962},{"buffer":0,"byteLength":11760,"byteOffset":16052,"target":34962},{"buffer":0,"byteLength":7840,"byteOffset":27812,"target":34962},{"buffer":0,"byteLength":3546,"byteOffset":35652,"target":34963},{"buffer":0,"byteLength":7416,"byteOffset":39200,"target":34962},{"buffer":0,"byteLength":7416,"byteOffset":46616,"target":34962},{"buffer":0,"byteLength":4944,"byteOffset":54032,"target":34962},{"buffer":0,"byteLength":1944,"byteOffset":58976,"target":34963},{"buffer":0,"byteLength":5352,"byteOffset":60920,"target":34962},{"buffer":0,"byteLength":5352,"byteOffset":66272,"target":34962},{"buffer":0,"byteLength":3568,"byteOffset":71624,"target":34962},{"buffer":0,"byteLength":2634,"byteOffset":75192,"target":34963},{"buffer":0,"byteLength":9096,"byteOffset":77828,"target":34962},{"buffer":0,"byteLength":9096,"byteOffset":86924,"target":34962},{"buffer":0,"byteLength":6064,"byteOffset":96020,"target":34962},{"buffer":0,"byteLength":9690,"byteOffset":102084,"target":34963},{"buffer":0,"byteLength":28500,"byteOffset":111776,"target":34962},{"buffer":0,"byteLength":28500,"byteOffset":140276,"target":34962},{"buffer":0,"byteLength":19000,"byteOffset":168776,"target":34962},{"buffer":0,"byteLength":5502,"byteOffset":187776,"target":34963},{"buffer":0,"byteLength":20784,"byteOffset":193280,"target":34962},{"buffer":0,"byteLength":20784,"byteOffset":214064,"target":34962},{"buffer":0,"byteLength":13856,"byteOffset":234848,"target":34962},{"buffer":0,"byteLength":3780,"byteOffset":248704,"target":34963},{"buffer":0,"byteLength":8676,"byteOffset":252484,"target":34962},{"buffer":0,"byteLength":8676,"byteOffset":261160,"target":34962},{"buffer":0,"byteLength":5784,"byteOffset":269836,"target":34962},{"buffer":0,"byteLength":1830,"byteOffset":275620,"target":34963},{"buffer":0,"byteLength":3852,"byteOffset":277452,"target":34962},{"buffer":0,"byteLength":3852,"byteOffset":281304,"target":34962},{"buffer":0,"byteLength":2568,"byteOffset":285156,"target":34962},{"buffer":0,"byteLength":1536,"byteOffset":287724,"target":34963},{"buffer":0,"byteLength":4560,"byteOffset":289260,"target":34962},{"buffer":0,"byteLength":4560,"byteOffset":293820,"target":34962},{"buffer":0,"byteLength":3040,"byteOffset":298380,"target":34962}],"scenes":[{"name":"Root Scene","nodes":[0]}],"accessors":[{"componentType":5123,"type":"SCALAR","count":150,"bufferView":0,"byteOffset":0},{"componentType":5126,"type":"VEC3","count":36,"bufferView":1,"byteOffset":0,"min":[-0.00537569029256701,0.0220371335744858,0.0224252622574568],"max":[0.0053613088093698,0.0245301332324743,0.025068761780858]},{"componentType":5126,"type":"VEC3","count":36,"bufferView":2,"byteOffset":0},{"componentType":5126,"type":"VEC2","count":36,"bufferView":3,"byteOffset":0},{"componentType":5123,"type":"SCALAR","count":1419,"bufferView":4,"byteOffset":0},{"componentType":5126,"type":"VEC3","count":980,"bufferView":5,"byteOffset":0,"min":[-0.0113504929468036,-0.015089463442564,-0.00197801575995982],"max":[0.0113025093451142,-0.0115026663988829,0.0113688837736845]},{"componentType":5126,"type":"VEC3","count":980,"bufferView":6,"byteOffset":0},{"componentType":5126,"type":"VEC2","count":980,"bufferView":7,"byteOffset":0},{"componentType":5123,"type":"SCALAR","count":1773,"bufferView":8,"byteOffset":0},{"componentType":5126,"type":"VEC3","count":618,"bufferView":9,"byteOffset":0,"min":[-0.0391722917556763,0.00972133595496416,-0.019702335819602],"max":[-0.000562491419259459,0.0523691363632679,0.01611646451056]},{"componentType":5126,"type":"VEC3","count":618,"bufferView":10,"byteOffset":0},{"componentType":5126,"type":"VEC2","count":618,"bufferView":11,"byteOffset":0},{"componentType":5123,"type":"SCALAR","count":972,"bufferView":12,"byteOffset":0},{"componentType":5126,"type":"VEC3","count":446,"bufferView":13,"byteOffset":0,"min":[-0.00576249090954661,0.0182161331176758,0.0193754639476538],"max":[0.00574400881305337,0.0249411389231682,0.0349622629582882]},{"componentType":5126,"type":"VEC3","count":446,"bufferView":14,"byteOffset":0},{"componentType":5126,"type":"VEC2","count":446,"bufferView":15,"byteOffset":0},{"componentType":5123,"type":"SCALAR","count":1317,"bufferView":16,"byteOffset":0},{"componentType":5126,"type":"VEC3","count":758,"bufferView":17,"byteOffset":0,"min":[-0.0153858894482255,-0.0718238651752472,-0.0513696372509003],"max":[0.0152214094996452,-0.00203236564993858,-0.0142388362437487]},{"componentType":5126,"type":"VEC3","count":758,"bufferView":18,"byteOffset":0},{"componentType":5126,"type":"VEC2","count":758,"bufferView":19,"byteOffset":0},{"componentType":5123,"type":"SCALAR","count":4845,"bufferView":20,"byteOffset":0},{"componentType":5126,"type":"VEC3","count":2375,"bufferView":21,"byteOffset":0,"min":[-0.00905128940939903,-0.0265892650932074,-0.0291236378252506],"max":[0.00900590885430574,0.0254801362752914,0.027826564386487]},{"componentType":5126,"type":"VEC3","count":2375,"bufferView":22,"byteOffset":0},{"componentType":5126,"type":"VEC2","count":2375,"bufferView":23,"byteOffset":0},{"componentType":5123,"type":"SCALAR","count":2751,"bufferView":24,"byteOffset":0},{"componentType":5126,"type":"VEC3","count":1732,"bufferView":25,"byteOffset":0,"min":[-0.0103756906464696,-0.0144182629883289,-0.00315558607690036],"max":[0.0103256078436971,-0.00151946069672704,0.009645183570683]},{"componentType":5126,"type":"VEC3","count":1732,"bufferView":26,"byteOffset":0},{"componentType":5126,"type":"VEC2","count":1732,"bufferView":27,"byteOffset":0},{"componentType":5123,"type":"SCALAR","count":1890,"bufferView":28,"byteOffset":0},{"componentType":5126,"type":"VEC3","count":723,"bufferView":29,"byteOffset":0,"min":[0.00050770997768268,0.00972673390060663,-0.0197514370083809],"max":[0.0390898063778877,0.0523691363632679,0.0160842631012201]},{"componentType":5126,"type":"VEC3","count":723,"bufferView":30,"byteOffset":0},{"componentType":5126,"type":"VEC2","count":723,"bufferView":31,"byteOffset":0},{"componentType":5123,"type":"SCALAR","count":915,"bufferView":32,"byteOffset":0},{"componentType":5126,"type":"VEC3","count":321,"bufferView":33,"byteOffset":0,"min":[-0.00598129257559776,0.0218631364405155,0.00712698372080922],"max":[0.00595750799402595,0.0284811295568943,0.0294570624828339]},{"componentType":5126,"type":"VEC3","count":321,"bufferView":34,"byteOffset":0},{"componentType":5126,"type":"VEC2","count":321,"bufferView":35,"byteOffset":0},{"componentType":5123,"type":"SCALAR","count":768,"bufferView":36,"byteOffset":0},{"componentType":5126,"type":"VEC3","count":380,"bufferView":37,"byteOffset":0,"min":[-0.00684449169784784,-0.0330259650945663,-0.0286032352596521],"max":[0.00672640791162848,-0.00218996033072472,-0.0144616365432739]},{"componentType":5126,"type":"VEC3","count":380,"bufferView":38,"byteOffset":0},{"componentType":5126,"type":"VEC2","count":380,"bufferView":39,"byteOffset":0}],"samplers":[{}],"materials":[{"name":"black0","alphaMode":"OPAQUE","extras":{"fromFBX":{"shadingModel":"Phong","isTruePBR":false}},"pbrMetallicRoughness":{"baseColorFactor":[0.00392156979069114,0.00392156979069114,0.00392156979069114,1],"metallicFactor":0.400000005960464,"roughnessFactor":0.687474191188812}},{"name":"black1","alphaMode":"OPAQUE","extras":{"fromFBX":{"shadingModel":"Phong","isTruePBR":false}},"pbrMetallicRoughness":{"baseColorFactor":[0.00392156979069114,0.00392156979069114,0.00392156979069114,1],"metallicFactor":0.400000005960464,"roughnessFactor":0.687474191188812}},{"name":"yellow0","alphaMode":"OPAQUE","extras":{"fromFBX":{"shadingModel":"Phong","isTruePBR":false}},"pbrMetallicRoughness":{"baseColorFactor":[1,0.666666984558105,0,1],"metallicFactor":0.400000005960464,"roughnessFactor":0.687474191188812}},{"name":"green0","alphaMode":"OPAQUE","extras":{"fromFBX":{"shadingModel":"Phong","isTruePBR":false}},"pbrMetallicRoughness":{"baseColorFactor":[0,0.247059002518654,0,1],"metallicFactor":0.400000005960464,"roughnessFactor":0.687474191188812}},{"name":"orange0","alphaMode":"OPAQUE","extras":{"fromFBX":{"shadingModel":"Phong","isTruePBR":false}},"pbrMetallicRoughness":{"baseColorFactor":[1,0.164706006646156,0,1],"metallicFactor":0.400000005960464,"roughnessFactor":0.687474191188812}},{"name":"yellow1","alphaMode":"OPAQUE","extras":{"fromFBX":{"shadingModel":"Phong","isTruePBR":false}},"pbrMetallicRoughness":{"baseColorFactor":[1,0.666666984558105,0,1],"metallicFactor":0.400000005960464,"roughnessFactor":0.687474191188812}},{"name":"orange1","alphaMode":"OPAQUE","extras":{"fromFBX":{"shadingModel":"Phong","isTruePBR":false}},"pbrMetallicRoughness":{"baseColorFactor":[1,0.164706006646156,0,1],"metallicFactor":0.400000005960464,"roughnessFactor":0.687474191188812}},{"name":"yellow2","alphaMode":"OPAQUE","extras":{"fromFBX":{"shadingModel":"Phong","isTruePBR":false}},"pbrMetallicRoughness":{"baseColorFactor":[1,0.666666984558105,0,1],"metallicFactor":0.400000005960464,"roughnessFactor":0.687474191188812}},{"name":"orange2","alphaMode":"OPAQUE","extras":{"fromFBX":{"shadingModel":"Phong","isTruePBR":false}},"pbrMetallicRoughness":{"baseColorFactor":[1,0.164706006646156,0,1],"metallicFactor":0.400000005960464,"roughnessFactor":0.687474191188812}},{"name":"yellow3","alphaMode":"OPAQUE","extras":{"fromFBX":{"shadingModel":"Phong","isTruePBR":false}},"pbrMetallicRoughness":{"baseColorFactor":[1,0.666666984558105,0,1],"metallicFactor":0.400000005960464,"roughnessFactor":0.687474191188812}}],"meshes":[{"name":"Birds","primitives":[{"material":0,"mode":4,"attributes":{"NORMAL":2,"POSITION":1,"TEXCOORD_0":3},"indices":0},{"material":1,"mode":4,"attributes":{"NORMAL":6,"POSITION":5,"TEXCOORD_0":7},"indices":4},{"material":2,"mode":4,"attributes":{"NORMAL":10,"POSITION":9,"TEXCOORD_0":11},"indices":8},{"material":3,"mode":4,"attributes":{"NORMAL":14,"POSITION":13,"TEXCOORD_0":15},"indices":12},{"material":4,"mode":4,"attributes":{"NORMAL":18,"POSITION":17,"TEXCOORD_0":19},"indices":16},{"material":5,"mode":4,"attributes":{"NORMAL":22,"POSITION":21,"TEXCOORD_0":23},"indices":20},{"material":6,"mode":4,"attributes":{"NORMAL":26,"POSITION":25,"TEXCOORD_0":27},"indices":24},{"material":7,"mode":4,"attributes":{"NORMAL":30,"POSITION":29,"TEXCOORD_0":31},"indices":28},{"material":8,"mode":4,"attributes":{"NORMAL":34,"POSITION":33,"TEXCOORD_0":35},"indices":32},{"material":9,"mode":4,"attributes":{"NORMAL":38,"POSITION":37,"TEXCOORD_0":39},"indices":36}]}],"nodes":[{"name":"RootNode","translation":[0,0,0],"rotation":[0,0,0,1],"scale":[1,1,1],"children":[1]},{"name":"Birds","translation":[0.112472303211689,8.78148651123047,-0.321384608745575],"rotation":[7.54979012640433e-8,-6.21131674265478e-15,-8.14603424714733e-8,1],"scale":[100.000022888184,100,100],"mesh":0}]}